<?xml version="1.0" standalone="no"?>
<svg xmlns="http://www.w3.org/2000/svg" viewBox="0 0 67 73" width="67" height="73"><g fill="#ff6d1e" color="#ff6d1e" transform="translate(11.037 0) scale(0.6875) "><svg width="64.0" height="64.0" x="0.0" y="0.0" viewBox="0 0 64 64"><circle cx="11" cy="52" r="1"></circle><path d="M14.478,60h5.073l7.084-7.113l-4.711-5.41l-2.609,2.609C19.536,50.034,19.763,50,20,50c1.654,0,3,1.346,3,3s-1.346,3-3,3  c-0.445,0-0.864-0.104-1.244-0.278L14.478,60z"></path><path d="M12.126,59.523l5.197-5.197C17.123,53.925,17,53.478,17,53c0-0.518,0.144-0.999,0.376-1.424l-0.497-0.596  c-0.331-0.397-0.305-0.982,0.061-1.348l3.667-3.667l-5.63-6.466l-1.678,1.812l3.538,5.125c0.274,0.397,0.225,0.934-0.116,1.275  l-3.015,3.015C13.889,51.114,14,51.543,14,52c0,1.654-1.346,3-3,3c-0.415,0-0.81-0.085-1.17-0.238l-3.123,3.124l-1.414-1.414  l3.07-3.071C8.139,52.981,8,52.509,8,52c0-1.654,1.346-3,3-3c0.466,0,0.903,0.116,1.297,0.307l2.42-2.42l-2.81-4.072l-7.941,8.577  V60h8.637L12.126,59.523z"></path><circle cx="20" cy="53" r="1"></circle><path d="M57.93,25.892l-0.169,0.113l1.58,2.205l0.269-0.269c0.519-0.519,0.519-1.364,0-1.883  C59.164,25.612,58.457,25.542,57.93,25.892z"></path><path d="M30.584,19H33c0.199,0,0.394,0.06,0.559,0.171l1.949,1.314l2.65-6.437l-4.169-1.859L30.584,19z"></path><polygon points="34.884,10.399 38.92,12.199 40.326,8.785 36.552,7.064 "></polygon><polygon points="54.14,28.419 56.032,31.52 57.908,29.644 56.096,27.115 "></polygon><path d="M52.706,9.421c0.55-0.763,0.467-1.799-0.198-2.464c-0.383-0.383-0.895-0.581-1.434-0.556  c-0.542,0.025-1.03,0.268-1.377,0.684L49.309,7.55l3.069,2.325L52.706,9.421z"></path><path d="M40.234,4.527c-0.484-0.291-1.05-0.364-1.592-0.206c-0.515,0.15-0.93,0.491-1.187,0.956l3.627,1.653  C41.412,6.026,41.067,5.027,40.234,4.527z"></path><path d="M21.729,39.195c1.549,0,3.005,0.587,4.125,1.647l3.898-3.238C29.284,36.843,29,35.957,29,35  c0-1.114,0.379-2.134,0.998-2.966L31.821,21h-2.275l-4.847,8.482l-1.958,3.002l-4.519,7.43l0.215,0.262  C19.407,39.539,20.541,39.195,21.729,39.195z"></path><path d="M20.083,15C18.934,15,18,15.935,18,17.083l0,1.031l4.126-1.392C21.952,15.74,21.104,15,20.083,15z"></path><polygon points="17.998,24.191 22.439,21.94 22.264,18.787 17.999,20.226 "></polygon><polygon points="17.996,36.438 21.049,31.418 22.814,28.714 22.559,24.122 17.998,26.434 "></polygon><path d="M43.704,25.746l2.74,1.358c0.265,0.131,0.458,0.374,0.528,0.661l0.513,2.123l5.185-5.926l-3.367-3.443L43.704,25.746z"></path><path d="M35.449,22.856c-0.016-0.01-0.032-0.021-0.048-0.031L33.733,21.7l-1.424,8.614C32.84,30.122,33.404,30,34,30  c0.481,0,0.938,0.09,1.378,0.217l3.182-6.544l-2.819-0.699C35.641,22.952,35.542,22.912,35.449,22.856z"></path><circle cx="34" cy="35" r="3"></circle><path d="M40.122,45.103l4.868-2.705c0.244-0.135,0.467-0.304,0.665-0.501l4.231-4.231l-0.544-2.174l-11.679,2.886  C36.748,39.368,35.451,40,34,40c-1.076,0-2.067-0.349-2.884-0.93l-3.921,3.257c1.543,2.238,1.383,5.278-0.452,7.361L40.122,45.103z"></path><path d="M25.296,48.305c1.331-1.573,1.278-3.926-0.205-5.409l-0.526-0.526c-0.757-0.757-1.764-1.174-2.835-1.174  c-0.718,0-1.401,0.203-2.005,0.555l2.1,2.567L25.296,48.305z"></path><path d="M50.97,33.757l0.565,2.259l3.042-3.042l-2.102-3.446l-3.698,2.466l1.774,1.17C50.76,33.303,50.909,33.514,50.97,33.757z"></path><path d="M41.304,26.75c-0.073-0.065-0.135-0.139-0.186-0.218l-0.99-1.51l-2.979,6.127c0.407,0.333,0.766,0.717,1.051,1.161  l5.856-4.157l-2.518-1.248C41.456,26.865,41.376,26.814,41.304,26.75z"></path><path d="M47.872,33.795l-1.442-0.95c-0.071-0.045-0.137-0.1-0.196-0.163c0,0,0-0.001-0.001-0.002  c-0.012-0.012-0.023-0.025-0.034-0.038c0-0.001-0.002,0-0.001-0.002c-0.104-0.125-0.173-0.268-0.207-0.418l-0.616-2.551  l-6.451,4.579C38.962,34.496,39,34.743,39,35c0,0.347-0.036,0.686-0.104,1.013L47.872,33.795z"></path><path d="M37.756,21.414l2.484,0.616c0.245,0.061,0.458,0.212,0.596,0.423l1.169,1.785l4.094-5.669l-3.748-2.669L37.756,21.414z"></path><polygon points="53.991,22.453 57.004,19.01 54.018,16.118 50.765,19.155 "></polygon><polygon points="48.027,9.088 43.636,14.358 47.271,16.946 51.206,11.497 "></polygon><path d="M58.381,17.436c0.682-0.779,0.643-1.964-0.09-2.696c-0.757-0.756-1.961-0.777-2.744-0.047l-0.064,0.06l2.84,2.75  L58.381,17.436z"></path></svg></g><path fill="#33146a" fill-rule="nonzero" d="M6.58 20.74L2.45 20.74L2.45 4.08L0 4.08L0 0.12L9.02 0.12L9.02 4.08L6.58 4.08L6.58 20.74ZM12.84 20.93Q10.80 20.93 10.04 19.57Q9.29 18.22 9.29 15.70L9.29 15.70Q9.29 13.63 9.83 12.53Q10.37 11.42 11.33 10.91Q12.29 10.39 14.26 9.77L14.26 9.77L15.41 9.38L15.41 9.34L15.41 7.58Q15.41 6.89 15.13 6.52Q14.86 6.14 14.47 6.14L14.47 6.14Q14.14 6.14 13.88 6.46Q13.63 6.77 13.63 7.30L13.63 7.30L13.63 8.35L9.55 8.35L9.55 7.78Q9.55 5.18 10.76 4.08Q11.98 2.98 14.71 2.98L14.71 2.98Q16.90 2.98 18.26 4.12Q19.63 5.26 19.63 7.34L19.63 7.34L19.63 20.74L15.46 20.74L15.46 18.65Q15.14 19.73 14.46 20.33Q13.78 20.93 12.84 20.93L12.84 20.93ZM14.50 17.66Q14.98 17.66 15.18 17.27Q15.38 16.87 15.38 16.30L15.38 16.30L15.38 11.40Q14.45 11.76 14.00 12.31Q13.56 12.86 13.56 13.85L13.56 13.85L13.56 16.10Q13.56 17.66 14.50 17.66L14.50 17.66ZM25.39 20.74L21.24 20.74L21.24 0L25.39 0L25.39 9.22L27.41 3.17L31.75 3.17L29.11 10.80L32.47 20.74L28.01 20.74L25.39 12.46L25.39 20.74ZM37.94 20.93Q35.23 20.93 34.06 19.44Q32.88 17.95 32.88 15L32.88 15L32.88 7.94Q32.88 5.52 34.27 4.25Q35.66 2.98 38.16 2.98L38.16 2.98Q43.22 2.98 43.22 7.94L43.22 7.94L43.22 9.22Q43.22 11.14 43.18 12.34L43.18 12.34L37.08 12.34L37.08 15.74Q37.08 16.66 37.27 17.17Q37.46 17.69 38.09 17.69L38.09 17.69Q38.57 17.69 38.77 17.40Q38.98 17.11 39.01 16.74Q39.05 16.37 39.05 15.65L39.05 15.65L39.05 13.94L43.22 13.94L43.22 14.95Q43.22 18.02 42.04 19.48Q40.85 20.93 37.94 20.93L37.94 20.93ZM37.06 10.25L39.05 10.25L39.05 7.99Q39.05 6.10 38.11 6.10L38.11 6.10Q37.06 6.10 37.06 7.99L37.06 7.99L37.06 10.25ZM50.64 14.76L44.59 14.76L44.59 12.05L50.64 12.05L50.64 14.76ZM56.06 20.74L52.08 20.74L52.08 0.12L56.06 0.12L56.06 20.74ZM63.62 20.74L59.50 20.74L59.50 4.08L57.05 4.08L57.05 0.12L66.07 0.12L66.07 4.08L63.62 4.08L63.62 20.74Z" transform="translate(0, 52)"></path></svg>